<?xml version="1.0" encoding="utf-8"?>
<!-- Generator: Adobe Illustrator 19.1.0, SVG Export Plug-In . SVG Version: 6.00 Build 0)  -->
<svg version="1.1" xmlns="http://www.w3.org/2000/svg" xmlns:xlink="http://www.w3.org/1999/xlink" x="0px" y="0px"
	 viewBox="0 0 244 457" style="enable-background:new 0 0 244 457;" xml:space="preserve">
<style type="text/css">
	.st0{display:none;}
	.st1{display:inline;}
	.st2{fill:none;stroke:#000000;stroke-width:0.5;stroke-miterlimit:10;}
	.st3{fill:none;stroke:#000000;stroke-miterlimit:10;}
	.st4{fill:#FFFFFF;}
	.st5{fill:none;stroke:#FFFFFF;stroke-width:0.5;stroke-miterlimit:10;}
	.st6{fill:none;stroke:#FFFFFF;stroke-miterlimit:10;}
	.st7{font-family:'Arial-BoldMT';}
	.st8{font-size:23.9137px;}
	.st9{font-family:'ArialMT';}
	.st10{font-size:9px;}
	.st11{font-size:7.2px;}
	.st12{font-size:7px;}
</style>
<g id="Lines" class="st0">
</g>
<g id="Text" class="st0">
</g>
<g id="Lime_x5F_label">
	<g>
		<g>
			<g>
				<line class="st5" x1="17.3" y1="86.9" x2="226.7" y2="86.9"/>
				<line class="st5" x1="17.3" y1="118.2" x2="226.7" y2="118.2"/>
				<line class="st5" x1="28.8" y1="132.8" x2="226.7" y2="132.8"/>
				<line class="st5" x1="28.8" y1="147.3" x2="226.7" y2="147.3"/>
				<line class="st5" x1="17.3" y1="162.1" x2="226.7" y2="162.1"/>
				<line class="st5" x1="17.3" y1="176.4" x2="226.7" y2="176.4"/>
				<line class="st5" x1="17.3" y1="191" x2="226.7" y2="191"/>
				<line class="st5" x1="17.3" y1="205.6" x2="226.7" y2="205.6"/>
				<line class="st5" x1="28.8" y1="220.2" x2="226.7" y2="220.2"/>
				<line class="st5" x1="28.8" y1="234.8" x2="226.7" y2="234.8"/>
				<line class="st5" x1="17.3" y1="249.4" x2="226.7" y2="249.4"/>
				<line class="st5" x1="17.3" y1="285.2" x2="226.7" y2="285.2"/>
				<line class="st5" x1="17.3" y1="299.8" x2="226.7" y2="299.8"/>
				<line class="st5" x1="17.3" y1="314.4" x2="226.7" y2="314.4"/>
				<line class="st5" x1="17.3" y1="328.9" x2="226.7" y2="328.9"/>
				<line class="st5" x1="17.3" y1="366.3" x2="226.7" y2="366.3"/>
				<line class="st5" x1="17.3" y1="425.9" x2="226.7" y2="425.9"/>
				<rect x="17.3" y="65.4" class="st4" width="209.3" height="7.1"/>
				<rect x="17.3" y="100.3" class="st4" width="209.3" height="3.6"/>
				<rect x="17.3" y="263.7" class="st4" width="209.3" height="7"/>
			</g>
			<rect x="1.4" y="1.4" class="st6" width="241.2" height="454.3"/>
		</g>
		<g>
			<text transform="matrix(1.187 0 0 1 18.3747 29.7273)" class="st4 st7 st8">Nutrition Facts</text>
			<text transform="matrix(1 0 0 1 18.3751 41.07)" class="st4 st9 st10">Serving Size 1 Bottle</text>
			<text transform="matrix(1 0 0 1 17.8749 51.57)" class="st4 st9 st10">16.9 FL OZ (500 ml)</text>
			<text transform="matrix(1 0 0 1 18.3745 62.07)" class="st4 st9 st10">Servings Per Container 1</text>
			<text transform="matrix(1 0 0 1 28.8751 142.5283)" class="st4 st9 st10">Saturated Fat 0g</text>
			<text transform="matrix(1 0 0 1 28.8751 157.195)" class="st4 st9 st10">Trans Fat 0g</text>
			<text transform="matrix(1 0 0 1 28.8751 230.0283)" class="st4 st9 st10">Dietary Fiber 0g</text>
			<text transform="matrix(1 0 0 1 28.8751 244.695)" class="st4 st9 st10">Sugars 14g</text>
			<text transform="matrix(1 0 0 1 18.3745 280.362)" class="st4 st9 st10">Vitamin A 0%</text>
			<text transform="matrix(1 0 0 1 18.375 294.6953)" class="st4 st9 st10">Calcium 4%</text>
			<text transform="matrix(1 0 0 1 18.3749 309.4034)" class="st4 st9 st10">Niacin 100%</text>
			<text transform="matrix(1 0 0 1 18.3745 324.1954)" class="st4 st9 st10">Vitamin B12 100%</text>
			<text transform="matrix(1 0 0 1 126.6247 280.362)" class="st4 st9 st10">Vitamin C 25%</text>
			<text transform="matrix(1 0 0 1 126.625 294.6953)" class="st4 st9 st10">Iron 0%</text>
			<text transform="matrix(1 0 0 1 126.625 309.4034)" class="st4 st9 st10">Vitamin B6 100%</text>
			<text transform="matrix(1 0 0 1 126.6245 324.1954)" class="st4 st9 st10">Pantothenic Acid 100%</text>
			<text transform="matrix(1 0 0 1 17.8745 96.8618)"><tspan x="0" y="0" class="st4 st7 st10">Calories </tspan><tspan x="41" y="0" class="st4 st9 st10">70</tspan></text>
			<text transform="matrix(1 0 0 1 144.3752 96.8617)"><tspan x="0" y="0" class="st4 st9 st10">Calories</tspan><tspan x="35.2" y="0" class="st4 st7 st10"> </tspan><tspan x="37.9" y="0" class="st4 st9 st10">from Fat 0</tspan></text>
			<text transform="matrix(1 0 0 1 17.8749 127.9452)"><tspan x="0" y="0" class="st4 st7 st10">Total Fat </tspan><tspan x="43.3" y="0" class="st4 st9 st10">0g</tspan></text>
			<text transform="matrix(1 0 0 1 212.8752 127.945)" class="st4 st7 st10">0%</text>
			<text transform="matrix(1 0 0 1 212.8754 142.5283)" class="st4 st7 st10">0%</text>
			<text transform="matrix(1 0 0 1 212.8754 171.6116)" class="st4 st7 st10">0%</text>
			<text transform="matrix(1 0 0 1 212.8754 186.1116)" class="st4 st7 st10">5%</text>
			<text transform="matrix(1 0 0 1 212.8752 201.0285)" class="st4 st7 st10">2%</text>
			<text transform="matrix(1 0 0 1 212.8752 215.5285)" class="st4 st7 st10">6%</text>
			<text transform="matrix(1 0 0 1 212.8752 230.0285)" class="st4 st7 st10">0%</text>
			<text transform="matrix(1 0 0 1 17.8749 171.6118)"><tspan x="0" y="0" class="st4 st7 st10">Cholesterol </tspan><tspan x="56" y="0" class="st4 st9 st10">0mg</tspan></text>
			<text transform="matrix(1 0 0 1 17.8749 186.2785)"><tspan x="0" y="0" class="st4 st7 st10">Sodium </tspan><tspan x="37.8" y="0" class="st4 st9 st10">125mg</tspan></text>
			<text transform="matrix(1 0 0 1 17.8749 200.9452)"><tspan x="0" y="0" class="st4 st7 st10">Potassium </tspan><tspan x="51.3" y="0" class="st4 st9 st10">75mg</tspan></text>
			<text transform="matrix(1 0 0 1 17.8749 215.6118)"><tspan x="0" y="0" class="st4 st7 st10">Total Carbohydrate </tspan><tspan x="91.3" y="0" class="st4 st9 st10">18g</tspan></text>
			<text transform="matrix(1 0 0 1 17.8749 259.2785)"><tspan x="0" y="0" class="st4 st7 st10">Protein </tspan><tspan x="36.2" y="0" class="st4 st9 st10">0g</tspan></text>
			<text transform="matrix(1 0 0 1 18.375 80.445)" class="st4 st9 st11">Amount Per Serving</text>
			<text transform="matrix(1 0 0 1 17.375 339.695)"><tspan x="0" y="0" class="st4 st9 st11">*Percent Daily Values are based on a 2,000 calorie diet. Your</tspan><tspan x="0" y="8" class="st4 st9 st11">daily values may be higher or lower depending on your calorie</tspan><tspan x="0" y="16" class="st4 st9 st11">needs:</tspan></text>
			<text transform="matrix(1 0 0 1 90.625 363.32)" class="st4 st9 st11">Calories:</text>
			<text transform="matrix(1 0 0 1 143.125 363.32)" class="st4 st9 st11">2,000</text>
			<text transform="matrix(1 0 0 1 188.75 363.32)" class="st4 st9 st11">2,500</text>
			<text transform="matrix(1 0 0 1 90.625 373.945)" class="st4 st9 st11">Less than</text>
			<text transform="matrix(1 0 0 1 143.125 373.945)" class="st4 st9 st11">65g</text>
			<text transform="matrix(1 0 0 1 188.75 373.945)" class="st4 st9 st11">80g</text>
			<text transform="matrix(1 0 0 1 90.625 381.82)" class="st4 st9 st11">Less than</text>
			<text transform="matrix(1 0 0 1 143.125 381.82)" class="st4 st9 st11">20g</text>
			<text transform="matrix(1 0 0 1 188.75 381.82)" class="st4 st9 st11">25g</text>
			<text transform="matrix(1 0 0 1 90.625 389.695)" class="st4 st9 st11">Less than</text>
			<text transform="matrix(1 0 0 1 143.125 389.695)" class="st4 st9 st11">300mg</text>
			<text transform="matrix(1 0 0 1 188.75 389.695)" class="st4 st9 st11">300mg</text>
			<text transform="matrix(1 0 0 1 90.625 397.57)" class="st4 st9 st11">Less than</text>
			<text transform="matrix(1 0 0 1 17.875 373.945)" class="st4 st9 st11">Total Fat</text>
			<text transform="matrix(1 0 0 1 17.875 435.32)" class="st4 st9 st11">Calories per gram:</text>
			<text transform="matrix(1 0 0 1 59.8751 443.195)" class="st4 st9 st11">Fat 9</text>
			<text transform="matrix(1 0 0 1 91.0419 443.195)" class="st4 st9 st11">Carbohydrate 4</text>
			<text transform="matrix(1 0 0 1 155.7085 443.195)" class="st4 st9 st11">Protein 4</text>
			<text transform="matrix(1 0 0 1 24.1247 381.82)" class="st4 st9 st11">Saturated Fat</text>
			<text transform="matrix(1 0 0 1 17.875 389.695)" class="st4 st9 st11">Cholesterol</text>
			<text transform="matrix(1 0 0 1 17.875 397.57)" class="st4 st9 st11">Sodium</text>
			<text transform="matrix(1 0 0 1 143.125 397.57)" class="st4 st9 st11">2,400mg</text>
			<text transform="matrix(1 0 0 1 188.75 397.57)" class="st4 st9 st11">2,400mg</text>
			<text transform="matrix(1 0 0 1 17.8746 405.445)" class="st4 st9 st11">Potassium</text>
			<text transform="matrix(1 0 0 1 143.125 405.445)" class="st4 st9 st11">3,500 mg</text>
			<text transform="matrix(1 0 0 1 188.75 405.445)" class="st4 st9 st11">3,500 mg</text>
			<text transform="matrix(1 0 0 1 17.8747 413.32)" class="st4 st9 st11">Total Carbohydrate</text>
			<text transform="matrix(1 0 0 1 143.125 413.32)" class="st4 st9 st11">300g</text>
			<text transform="matrix(1 0 0 1 188.75 413.32)" class="st4 st9 st11">375g</text>
			<text transform="matrix(1 0 0 1 24.1246 421.195)" class="st4 st9 st11">Dietary Fiber</text>
			<text transform="matrix(1 0 0 1 143.125 421.195)" class="st4 st9 st11">25g</text>
			<text transform="matrix(1 0 0 1 188.75 421.195)" class="st4 st9 st11">30g</text>
			<text transform="matrix(1 0 0 1 176.7082 111.7784)" class="st4 st7 st12">% Daily Value*</text>
			<circle class="st4" cx="83.6" cy="440.6" r="0.8"/>
			<circle class="st4" cx="148.3" cy="440.6" r="0.8"/>
			<circle class="st4" cx="122" cy="277.3" r="1.2"/>
			<circle class="st4" cx="122" cy="291.8" r="1.2"/>
			<circle class="st4" cx="122" cy="306.3" r="1.2"/>
			<circle class="st4" cx="122" cy="320.8" r="1.2"/>
		</g>
	</g>
</g>
<g id="Fruit_x5F_Punch_x5F_label" class="st0">
</g>
<g id="Orange_x5F_label" class="st0">
</g>
</svg>
